<?xml version="1.0" encoding="UTF-8" standalone="no"?>
<svg
   xmlns:dc="http://purl.org/dc/elements/1.1/"
   xmlns:cc="http://creativecommons.org/ns#"
   xmlns:rdf="http://www.w3.org/1999/02/22-rdf-syntax-ns#"
   xmlns:svg="http://www.w3.org/2000/svg"
   xmlns="http://www.w3.org/2000/svg"
   xmlns:sodipodi="http://sodipodi.sourceforge.net/DTD/sodipodi-0.dtd"
   xmlns:inkscape="http://www.inkscape.org/namespaces/inkscape"
   height="70.967583"
   viewBox="0 0 193.79836 70.967865"
   width="193.79922"
   version="1.1"
   id="svg8"
   sodipodi:docname="WKU_logo.svg"
   inkscape:version="1.0.1 (3bc2e813f5, 2020-09-07)">
  <metadata
     id="metadata14">
    <rdf:RDF>
      <cc:Work
         rdf:about="">
        <dc:format>image/svg+xml</dc:format>
        <dc:type
           rdf:resource="http://purl.org/dc/dcmitype/StillImage" />
      </cc:Work>
    </rdf:RDF>
  </metadata>
  <defs
     id="defs12" />
  <sodipodi:namedview
     pagecolor="#ffffff"
     bordercolor="#666666"
     borderopacity="1"
     objecttolerance="10"
     gridtolerance="10"
     guidetolerance="10"
     inkscape:pageopacity="0"
     inkscape:pageshadow="2"
     inkscape:window-width="1920"
     inkscape:window-height="1136"
     id="namedview10"
     showgrid="false"
     inkscape:zoom="2.2026657"
     inkscape:cx="28.072398"
     inkscape:cy="104.721"
     inkscape:window-x="0"
     inkscape:window-y="27"
     inkscape:window-maximized="1"
     inkscape:current-layer="g6" />
  <g
     transform="matrix(3.1875,0,0,3.1875,-81.919923,-19.7625)"
     id="g6"
     style="opacity:1">
    <path
       d="m 83.6,26.3 c -1.3,1 -4.4,2.7 -10,2 C 66.5,27.5 61,19.8 58.2,16.3 l -1.4,1.2 v 5.9 c 0,0.3 0.1,0.5 0.2,0.7 0.1,0.1 0.3,0.3 0.6,0.3 v 0.4 h -4.9 v -0.4 c 0.3,-0.1 0.5,-0.2 0.6,-0.4 0.1,-0.1 0.2,-0.4 0.2,-0.6 V 7.7 C 53.5,7.3 53.1,6.9 52.7,6.9 52.4,6.9 52.1,7.1 52,7.4 51.9,7.6 51.7,8 51.5,8.6 L 47.3,21.4 46,24.8 H 43.6 L 42.5,21.5 39.3,11.7 34.9,24.8 H 32.5 L 27.1,8.5 C 26.9,7.8 26.7,7.4 26.5,7.1 26.3,6.9 26.1,6.7 25.7,6.6 V 6.2 h 5.5 v 0.4 c -0.5,0.1 -0.7,0.4 -0.7,0.8 0,0.2 0.1,0.5 0.2,0.9 l 3.1,9.8 3.4,-9.9 C 37.3,7.8 37.4,7.5 37.4,7.4 37.4,7 37.1,6.7 36.6,6.6 V 6.2 h 5.7 v 0.4 c -0.5,0.2 -0.8,0.5 -0.8,0.9 0,0.1 0.1,0.4 0.2,0.8 L 44.9,18.2 48,8.5 C 48.2,8 48.2,7.7 48.2,7.4 48.2,7 47.9,6.7 47.4,6.6 V 6.2 H 57.6 V 6.6 C 57.3,6.8 57.1,6.9 57,7 56.9,7.1 56.8,7.4 56.8,7.6 v 5.7 L 63.3,7.9 C 63.6,7.6 63.7,7.4 63.7,7.2 63.7,6.9 63.5,6.8 63,6.7 V 6.2 h 6.4 4.9 V 6.6 C 74,6.7 73.8,6.8 73.7,7 73.6,7.1 73.5,7.4 73.5,7.6 v 9.3 c 0,1.1 0,1.9 0.2,2.4 0.1,0.5 0.3,0.9 0.6,1.3 0.7,0.9 2,1.4 3.8,1.4 1.8,0 3,-0.5 3.8,-1.4 0.3,-0.3 0.5,-0.8 0.6,-1.3 0.1,-0.5 0.2,-1.3 0.2,-2.4 V 7.7 C 82.7,7.4 82.6,7.2 82.5,7.1 82.4,7 82.2,6.8 81.9,6.7 V 6.2 h 4.6 V 6.6 C 86.2,6.8 86,6.9 85.9,7 85.8,7.1 85.7,7.4 85.7,7.6 V 18 c 0,2 -0.3,3.4 -0.9,4.4 C 83.7,24.2 81.4,25 78,25 75.5,25 73.6,24.5 72.3,23.6 71.5,23 71,22.3 70.7,21.3 70.4,20.4 70.3,19.2 70.3,17.9 V 7.6 c 0,-0.4 -0.4,-0.7 -0.8,-0.7 -0.2,0 -0.5,0.1 -0.8,0.3 -0.1,0.1 -7.9,6.9 -7.9,6.9 2.5,3.2 6.7,8.9 10.7,11.4 4.9,3.1 9.9,1.3 12,0.5 z"
       id="path2" />
  </g>
</svg>
